PathFileType  4	(X/Y/Z) C:\Users\antoi\Documents\MyRepositories\mobilecap\ResultsAnalysis
DataRate	CameraRate	NumFrames	NumMarkers	Units	OrigDataRate	OrigDataStartFrame	OrigNumFrames
100.0	100.0	4	55	mm	100.0	301	601
Frame#	Time	r_knee			r_shank_antsup			r_ankle			r_calc			r_5meta			r_toe			L_knee			L_shank_antsup			L_ankle			L_calc			L_5meta			L_toe			r_mknee			r_mankle			L_mknee			L_mankle			r_sh2			r_sh3			r_sh4			L_sh2			L_sh3			r_thigh1			r_thigh2			r_thigh3			r_thigh4			r_thigh5			L_thigh1			L_thigh2			L_thigh3			L_thigh4			r.ASIS			r.PSIS			L.ASIS			L.PSIS			C7			R_Shoulder			L_Shoulder			R_Sternum			L_Sternum			R_humerus			R_elbow_med			R_elbow_lat			R_forearm			R_wrist_radius			R_wrist_ulna			L_humerus			L_elbow_med			L_elbow_lat			L_forearm			L_wrist_radius			L_wrist_ulna			R_HJC			L_HJC			R_HJC_reg			L_HJC_reg			
		X1	Y1	Z1	X2	Y2	Z2	X3	Y3	Z3	X4	Y4	Z4	X5	Y5	Z5	X6	Y6	Z6	X7	Y7	Z7	X8	Y8	Z8	X9	Y9	Z9	X10	Y10	Z10	X11	Y11	Z11	X12	Y12	Z12	X13	Y13	Z13	X14	Y14	Z14	X15	Y15	Z15	X16	Y16	Z16	X17	Y17	Z17	X18	Y18	Z18	X19	Y19	Z19	X20	Y20	Z20	X21	Y21	Z21	X22	Y22	Z22	X23	Y23	Z23	X24	Y24	Z24	X25	Y25	Z25	X26	Y26	Z26	X27	Y27	Z27	X28	Y28	Z28	X29	Y29	Z29	X30	Y30	Z30	X31	Y31	Z31	X32	Y32	Z32	X33	Y33	Z33	X34	Y34	Z34	X35	Y35	Z35	X36	Y36	Z36	X37	Y37	Z37	X38	Y38	Z38	X39	Y39	Z39	X40	Y40	Z40	X41	Y41	Z41	X42	Y42	Z42	X43	Y43	Z43	X44	Y44	Z44	X45	Y45	Z45	X46	Y46	Z46	X47	Y47	Z47	X48	Y48	Z48	X49	Y49	Z49	X50	Y50	Z50	X51	Y51	Z51	X52	Y52	Z52	X53	Y53	Z53	X54	Y54	Z54	X55	Y55	Z55	

301	3.00000000	-195.01510	547.60683	-439.19353	-169.14449	451.54508	-446.10625	-274.15026	122.54487	-468.26210	-356.43721	74.23617	-516.21527	-166.20080	47.65362	-415.52853	-104.03529	74.05067	-475.37794	-191.34280	548.64849	-778.38518	-197.57331	459.89522	-802.63643	-259.10827	125.59714	-752.76015	-342.24379	74.61702	-701.56236	-148.22322	50.51472	-784.47084	-89.97474	76.07616	-720.26902	-185.01137	534.57245	-573.44416	-239.74309	134.05682	-557.71979	-180.56874	541.65687	-642.04605	-237.84702	130.70260	-656.32008	-198.90366	344.41301	-420.99746	-230.69031	476.91125	-408.51826	-275.77086	370.70434	-402.84301	-287.09556	472.57480	-795.87329	-290.18832	350.34405	-792.71215	-95.80873	866.91415	-419.53303	-102.86810	756.42559	-424.51803	-161.15210	733.62761	-400.73424	-209.65691	868.00361	-416.54206	-209.50199	753.25552	-420.67307	-86.40215	831.72192	-784.39253	-92.47838	691.12341	-773.32008	-196.35356	834.31913	-800.92633	-205.84640	697.64381	-795.90619	-82.59188	1083.71188	-465.42667	-258.71054	1094.40063	-545.10550	-68.43627	1087.47426	-717.33448	-254.39425	1092.93046	-653.34385	-240.10176	1630.85614	-596.68324	-165.48054	1572.69155	-429.23453	-185.34970	1574.19170	-769.80756	-109.53766	1558.34907	-569.67893	-112.09401	1555.41258	-626.74051	-144.96015	1416.77862	-359.38702	-205.55998	1209.64603	-389.23727	-198.45398	1233.65916	-309.08936	-131.88374	1078.29694	-264.01199	-84.05612	992.85143	-258.47514	-127.89952	995.42913	-241.46569	-199.22519	1447.56530	-848.04245	-211.73663	1207.67448	-805.66646	-212.61032	1227.64685	-883.99021	-167.77517	1176.53615	-923.39146	-100.18687	1011.91190	-955.74056	-140.11504	1001.41593	-960.38042	-155.49712	965.78322	-491.72210	-149.79796	974.16198	-698.43462	-138.07076	1003.88688	-502.11538	-131.43593	1001.62723	-668.50741	
302	3.01000000	-195.07849	547.56772	-439.23835	-169.14587	451.56692	-446.09845	-274.13900	122.59291	-468.28289	-356.42322	74.24328	-516.21804	-166.21963	47.66107	-415.50692	-104.02998	74.07111	-475.40177	-191.33748	548.65012	-778.39018	-197.56958	459.90343	-802.63612	-259.11156	125.59352	-752.75463	-342.26731	74.59319	-701.55247	-148.22457	50.52061	-784.47028	-89.99460	76.09725	-720.35439	-184.98709	534.58012	-573.38165	-239.73731	134.07270	-557.66674	-180.48420	541.74952	-642.00317	-237.84522	130.72365	-656.32518	-198.96114	344.41220	-420.98775	-230.67656	476.88794	-408.50369	-275.77052	370.69127	-402.83323	-287.10539	472.58338	-795.83974	-290.19031	350.33093	-792.71249	-95.80027	866.92042	-419.53758	-102.90820	756.39698	-424.49009	-161.15259	733.56497	-400.73882	-209.69982	867.92869	-416.43700	-209.50661	753.26946	-420.66743	-86.40685	831.72157	-784.38386	-92.47635	691.15595	-773.37732	-196.36457	834.31615	-800.91087	-205.84884	697.64696	-795.90562	-82.58684	1083.74928	-465.41709	-258.71942	1094.41482	-544.96381	-68.43297	1087.48084	-717.28432	-254.42336	1092.87378	-653.33738	-240.09764	1630.86794	-596.64518	-165.41162	1572.73830	-429.18292	-185.35198	1574.19786	-769.75564	-109.54020	1558.34447	-569.64339	-112.09661	1555.41175	-626.73079	-144.96022	1416.79718	-359.33943	-205.56509	1209.63797	-389.24218	-198.46394	1233.65277	-309.07395	-131.84950	1078.27378	-263.98258	-84.04245	992.79535	-258.56774	-127.89264	995.39846	-241.44276	-199.25682	1447.58345	-848.02865	-211.74547	1207.69112	-805.65604	-212.69899	1227.66357	-883.93925	-167.86016	1176.51094	-923.36946	-100.23855	1011.93157	-955.74246	-140.19453	1001.41273	-960.37335	-155.46136	965.80767	-491.64575	-149.79260	974.14463	-698.36081	-138.06146	1003.98724	-502.03293	-131.46663	1001.62158	-668.39819	
303	3.02000000	-195.16170	547.52101	-439.27909	-169.18420	451.58551	-446.07679	-274.12996	122.61379	-468.27449	-356.41140	74.25293	-516.20383	-166.20144	47.67609	-415.46245	-104.05509	74.06953	-475.42629	-191.34208	548.65663	-778.37844	-197.56755	459.91321	-802.62673	-259.11328	125.59872	-752.75098	-342.29219	74.56863	-701.55878	-148.22236	50.52291	-784.46835	-89.99968	76.14175	-720.47425	-184.92628	534.58952	-573.26076	-239.73164	134.08391	-557.62652	-180.40924	541.82974	-641.96505	-237.84723	130.75027	-656.32745	-198.99482	344.46483	-420.97347	-230.76953	476.73135	-408.57489	-275.78848	370.75110	-402.81894	-287.11516	472.59225	-795.80438	-290.11518	350.37699	-792.83548	-95.82639	866.94211	-419.52792	-102.92748	756.37429	-424.45989	-161.15085	733.53289	-400.72369	-209.68968	867.91600	-416.37117	-209.49011	753.29860	-420.65596	-86.41909	831.71955	-784.37228	-92.47363	691.17480	-773.40621	-196.37454	834.32379	-800.89778	-205.86305	697.61157	-795.82987	-82.58476	1083.78229	-465.39992	-258.73049	1094.44565	-544.87848	-68.44119	1087.48536	-717.26911	-254.48809	1092.87015	-653.39337	-240.09486	1630.87708	-596.56302	-165.40108	1572.74547	-429.16155	-185.37232	1574.20717	-769.67969	-109.55302	1558.33337	-569.61786	-112.10140	1555.42689	-626.73281	-144.96433	1416.79758	-359.30568	-205.58602	1209.61846	-389.29240	-198.45363	1233.66164	-309.06657	-131.84316	1078.25512	-263.96412	-84.01979	992.73959	-258.60864	-127.88241	995.36953	-241.45570	-199.28760	1447.60033	-848.00139	-211.77887	1207.68776	-805.64752	-212.76242	1227.67986	-883.91707	-167.92226	1176.50058	-923.36135	-100.30225	1011.96108	-955.76840	-140.26733	1001.42813	-960.35799	-155.47125	965.83934	-491.61287	-149.81656	974.14616	-698.32955	-138.03534	1004.04102	-501.95855	-131.53105	1001.62529	-668.32751	
304	3.03000000	-195.18857	547.51023	-439.25904	-169.21285	451.60350	-446.02166	-274.12157	122.58754	-468.22590	-356.40310	74.25690	-516.18095	-166.18721	47.67787	-415.44676	-104.10259	74.02568	-475.41184	-191.35960	548.67484	-778.32012	-197.56361	459.91817	-802.61599	-259.11108	125.60351	-752.74484	-342.31699	74.53063	-701.54437	-148.21938	50.52538	-784.46487	-89.92814	76.20303	-720.48485	-184.90428	534.59153	-573.20974	-239.72550	134.08587	-557.62592	-180.39819	541.84146	-641.95613	-237.85051	130.76966	-656.32790	-198.97945	344.48115	-420.97040	-230.86679	476.65033	-408.64703	-275.82347	370.84724	-402.81699	-287.11755	472.59715	-795.79293	-290.09194	350.38884	-792.85273	-95.84501	866.95402	-419.52003	-102.95079	756.37122	-424.44822	-161.13475	733.54644	-400.65864	-209.65845	867.96916	-416.36975	-209.48515	753.30504	-420.64882	-86.42483	831.72190	-784.36683	-92.48059	691.17914	-773.37998	-196.38476	834.33821	-800.89155	-205.88220	697.57043	-795.71253	-82.59281	1083.78430	-465.38833	-258.76154	1094.47600	-544.86569	-68.45247	1087.48899	-717.26554	-254.59045	1092.91983	-653.39390	-240.09849	1630.88540	-596.45674	-165.43020	1572.71795	-429.15727	-185.41452	1574.23541	-769.58522	-109.56847	1558.32096	-569.59894	-112.11585	1555.44126	-626.72778	-144.99258	1416.75466	-359.31956	-205.59621	1209.60915	-389.31718	-198.42109	1233.62944	-309.05212	-131.86255	1078.24058	-263.95240	-84.00870	992.69661	-258.59904	-127.87164	995.34373	-241.50178	-199.33528	1447.60550	-847.93806	-211.82988	1207.69366	-805.62402	-212.81157	1227.70729	-883.92678	-167.94380	1176.56806	-923.41336	-100.37810	1011.99877	-955.82417	-140.32565	1001.46326	-960.35023	-155.52647	965.85450	-491.61178	-149.88355	974.16870	-698.32847	-138.00805	1004.03200	-501.92272	-131.61370	1001.64624	-668.30148	
